<?xml version="1.0" encoding="UTF-8"?>
<!-- The Best Svg Icon site in the world: iconSvg.co, Visit us! https://iconsvg.co -->
<svg fill="gray" width="800px" height="800px" version="1.1" viewBox="144 144 512 512" xmlns="http://www.w3.org/2000/svg">
 <path d="m494.17 192.89c-33.441-2.1445-67.543 9.4492-93.047 34.953-32.973 32.973-42.68 80.316-29.441 122.02l-162.95 162.95c-21.523 21.523-21.523 56.879 0 78.406 21.523 21.523 56.879 21.523 78.406 0l162.95-162.95c41.703 13.238 89.047 3.5312 122.02-29.441 34.004-34.004 43.449-83.387 28.34-125.95h-0.003906c-1.7109-4.9336-5.8477-8.6328-10.941-9.7852-5.0938-1.1562-10.418 0.40234-14.09 4.1172l-57.625 57.625-33.219-9.4453-9.4453-33.219 57.625-57.625-0.003907-0.003906c3.7148-3.668 5.2734-8.9961 4.1211-14.09s-4.8555-9.2305-9.7891-10.941c-10.641-3.7773-21.758-5.8984-32.906-6.6133zm-2.6758 30.07-44.086 44.086c-1.8867 1.9062-3.2305 4.2852-3.8945 6.8867-0.66406 2.6016-0.625 5.332 0.11719 7.9102l14.168 49.91c1.4336 5.0273 5.3633 8.957 10.391 10.391l49.91 14.168v0.003906c2.582 0.73828 5.3125 0.78125 7.9141 0.11719 2.5977-0.66406 4.9766-2.0117 6.8867-3.8984l44.082-44.082c1.4219 24.801-7.2617 49.93-26.293 68.957-26.871 26.871-65.98 33.375-98.871 19.68-2.7578-1.1719-5.8008-1.4961-8.7461-0.9375-2.9414 0.5625-5.6523 1.9844-7.7852 4.0898l-169.56 169.56c-10.055 10.051-25.527 10.055-35.582 0-10.055-10.055-10.055-25.527 0-35.582l169.56-169.56c2.1055-2.1328 3.5273-4.8438 4.0859-7.7891 0.5625-2.9414 0.23438-5.9844-0.9375-8.7422-13.695-32.891-7.1914-72 19.68-98.871 19.027-19.027 44.156-27.715 68.957-26.293z"/>
</svg>